<svg width="64" height="64" viewBox="0 0 64 64" fill="none" xmlns="http://www.w3.org/2000/svg">
<path d="M21.92 8H42.08C49.76 8 56 14.24 56 21.92V42.08C56 45.7718 54.5334 49.3124 51.9229 51.9229C49.3124 54.5334 45.7718 56 42.08 56H21.92C14.24 56 8 49.76 8 42.08V21.92C8 18.2282 9.46657 14.6876 12.0771 12.0771C14.6876 9.46657 18.2282 8 21.92 8ZM21.44 12.8C19.1485 12.8 16.9509 13.7103 15.3306 15.3306C13.7103 16.9509 12.8 19.1485 12.8 21.44V42.56C12.8 47.336 16.664 51.2 21.44 51.2H42.56C44.8515 51.2 47.0491 50.2897 48.6694 48.6694C50.2897 47.0491 51.2 44.8515 51.2 42.56V21.44C51.2 16.664 47.336 12.8 42.56 12.8H21.44ZM44.6 16.4C45.3957 16.4 46.1587 16.7161 46.7213 17.2787C47.2839 17.8413 47.6 18.6044 47.6 19.4C47.6 20.1957 47.2839 20.9587 46.7213 21.5213C46.1587 22.0839 45.3957 22.4 44.6 22.4C43.8044 22.4 43.0413 22.0839 42.4787 21.5213C41.9161 20.9587 41.6 20.1957 41.6 19.4C41.6 18.6044 41.9161 17.8413 42.4787 17.2787C43.0413 16.7161 43.8044 16.4 44.6 16.4ZM32 20C35.1826 20 38.2348 21.2643 40.4853 23.5147C42.7357 25.7652 44 28.8174 44 32C44 35.1826 42.7357 38.2348 40.4853 40.4853C38.2348 42.7357 35.1826 44 32 44C28.8174 44 25.7652 42.7357 23.5147 40.4853C21.2643 38.2348 20 35.1826 20 32C20 28.8174 21.2643 25.7652 23.5147 23.5147C25.7652 21.2643 28.8174 20 32 20ZM32 24.8C30.0904 24.8 28.2591 25.5586 26.9088 26.9088C25.5586 28.2591 24.8 30.0904 24.8 32C24.8 33.9096 25.5586 35.7409 26.9088 37.0912C28.2591 38.4414 30.0904 39.2 32 39.2C33.9096 39.2 35.7409 38.4414 37.0912 37.0912C38.4414 35.7409 39.2 33.9096 39.2 32C39.2 30.0904 38.4414 28.2591 37.0912 26.9088C35.7409 25.5586 33.9096 24.8 32 24.8Z" fill="black"/>
</svg>
